<svg id="Layer_1" data-name="Layer 1" xmlns="http://www.w3.org/2000/svg" viewBox="0 0 283.46 50.81"><defs><style>.cls-1{fill:#fff;}.cls-2{fill:none;stroke:#f1f2f2;stroke-miterlimit:10;stroke-width:0.5px;}.cls-3{fill:#005eb8;}.cls-4{fill:#e9552d;}.cls-5{fill:#e6b222;}.cls-6{fill:#b0d239;}</style></defs><title>EasternAHSN_FullColour_Negative_Inline</title><polygon class="cls-1" points="5.02 12.17 0 35.7 16.64 35.7 17.28 32.77 3.82 32.77 5.55 24.68 16.96 24.68 17.56 21.89 6.15 21.89 7.6 15.1 20.67 15.1 21.31 12.17 5.02 12.17"/><path class="cls-1" d="M32.86,25.49c-1.41,1.27-3.46,1.56-5.34,1.8-2.58.36-4.87.6-4.87,3.36,0,2.16,1.55,2.93,3.46,2.93,2.69,0,5.34-1.62,6.15-5.33Zm3.53-3.74a13.76,13.76,0,0,1-.42,3l-1.38,6.43a7.7,7.7,0,0,0-.18,1.21c0,.74.46,1.13,1.31,1.13a2.05,2.05,0,0,0,1.34-.43l.5,2.37a5.49,5.49,0,0,1-2.44.53c-1.87,0-3.46-.88-3.46-3a7.45,7.45,0,0,1-6.26,3.08c-3.53,0-5.83-1.88-5.83-5.23,0-4.6,4.24-5.44,7-5.76,3.25-.39,6.85-.46,6.85-3.08,0-2-2.05-2.47-3.78-2.47a10,10,0,0,0-6,2l-1.31-2.19a12.56,12.56,0,0,1,7.53-2.47c3.85,0,6.53,1.66,6.53,4.84"/><path class="cls-1" d="M46.9,36.13c-3.6,0-6.5-1.45-8-3.93l2.43-1.41A6.47,6.47,0,0,0,47,33.58c2.51,0,4.42-1,4.42-2.86,0-1.66-1.56-2.15-4.35-3.22s-5.44-2.11-5.44-5.29c0-3.61,3.36-5.3,6.93-5.3a10.15,10.15,0,0,1,7.35,3l-2.16,1.74a7.15,7.15,0,0,0-5.26-2.23c-1.91,0-3.89.67-3.89,2.4s1.7,2.26,3.78,3c2.76,1,6.08,2.05,6.08,5.58,0,3.14-2.76,5.69-7.53,5.69"/><path class="cls-1" d="M67.32,34.71a7.51,7.51,0,0,1-4.38,1.42c-2.79,0-4.87-1.31-4.87-4a10.66,10.66,0,0,1,.28-1.91L60.5,19.87H57.43L58,17.33h3.11l1.1-5.16h3L64,17.33H69.9l-.56,2.54H63.51L61.35,30.15a7.77,7.77,0,0,0-.21,1.31c0,1.27.88,1.95,2.26,1.95a4.54,4.54,0,0,0,2.76-.92Z"/><path class="cls-1" d="M83.42,25a3.1,3.1,0,0,0,0-.49,4.7,4.7,0,0,0-4.94-5c-3.15,0-5.52,2.27-6.15,5.48Zm2.68,2.26H72A5.11,5.11,0,0,0,72,28c0,3.25,2.23,5.41,5.58,5.41A7,7,0,0,0,82.92,31l2,1.94a10,10,0,0,1-7.49,3.22c-5.45,0-8.63-3.64-8.63-8.62,0-5.62,4-10.6,9.79-10.6a7.56,7.56,0,0,1,7.95,7.8,8.65,8.65,0,0,1-.39,2.51"/><path class="cls-1" d="M99.48,20.44a4,4,0,0,0-2-.53c-2.48,0-5.13,2.22-6,6.18l-2,9.61h-3l3.92-18.37h3l-.64,2.93C94.21,18.35,96.12,17,98.24,17a5.32,5.32,0,0,1,2.68.67Z"/><path class="cls-1" d="M105,20.09a8.25,8.25,0,0,1,6.43-3.18,5.06,5.06,0,0,1,5.41,5.33,10.53,10.53,0,0,1-.25,2.05L114.13,35.7h-3l2.37-11.06a11.6,11.6,0,0,0,.21-1.73c0-2-1.17-3.21-3.43-3.21-3.07,0-5.76,2.43-6.5,5.83L101.69,35.7h-3l3.92-18.37h3Z"/><path class="cls-1" d="M135,16.87l-3,9.29h5.9Zm5.86,18.83-1.62-5h-8.48l-1.63,5H123l8.72-23.53h6.75l8.69,23.53Z"/><polygon class="cls-1" points="164.23 35.7 164.23 25.88 154.58 25.88 154.58 35.7 148.93 35.7 148.93 12.17 154.58 12.17 154.58 20.86 164.23 20.86 164.23 12.17 169.92 12.17 169.92 35.7 164.23 35.7"/><path class="cls-1" d="M192.14,16.52l-4.21,2.61a7,7,0,0,0-5.86-2.82c-2,0-3.39.7-3.39,2.22,0,1.73,2.26,2.09,4.8,2.54,5,.89,9.12,2.37,9.12,7.25,0,4.45-3.57,7.81-9.89,7.81-5.13,0-9.05-2.19-10.92-5.9l4.41-2.34A7.41,7.41,0,0,0,183,31.53c2.48,0,4.1-.91,4.1-2.44,0-2-2.3-2.33-5.12-2.82-4.81-.85-8.87-2.37-8.87-7.31,0-4.49,3.67-7.21,9.12-7.21,3.74,0,7.59,1.27,10,4.77"/><polygon class="cls-1" points="209.17 35.7 200.37 19.59 200.37 35.7 194.97 35.7 194.97 12.17 202 12.17 210.55 27.93 210.55 12.17 215.92 12.17 215.92 35.7 209.17 35.7"/><path class="cls-2" d="M222.33,47,234.83,20M279.59,3.83,263.46,47M280.11,4.35,222.85,46.52H264L234.83,20,279.07,4.35"/><path class="cls-3" d="M222.66,50.81a4.18,4.18,0,1,0-4.17-4.17,4.18,4.18,0,0,0,4.17,4.17"/><path class="cls-4" d="M234.85,24.23a4.18,4.18,0,1,0-4.18-4.18,4.18,4.18,0,0,0,4.18,4.18"/><path class="cls-5" d="M263.45,50.5a4.18,4.18,0,1,0-4.18-4.18,4.18,4.18,0,0,0,4.18,4.18"/><path class="cls-6" d="M279.29,8.35a4.18,4.18,0,1,0-4.18-4.18,4.18,4.18,0,0,0,4.18,4.18"/></svg>